<svg xmlns="http://www.w3.org/2000/svg" version="1.1" xmlns:xlink="http://www.w3.org/1999/xlink" xmlns:svgjs="http://svgjs.dev/svgjs" width="1000" height="623" viewBox="0 0 1000 623"><g transform="matrix(1,0,0,1,-0.6060606060606233,0.2522267206477409)"><svg viewBox="0 0 396 247" data-background-color="#051726" preserveAspectRatio="xMidYMid meet" height="623" width="1000" xmlns="http://www.w3.org/2000/svg" xmlns:xlink="http://www.w3.org/1999/xlink"><defs></defs><g id="tight-bounds" transform="matrix(1,0,0,1,0.2400000000000091,-0.09999999999999432)"><svg viewBox="0 0 395.52 247.2" height="247.2" width="395.52"><g><svg></svg></g><g><svg viewBox="0 0 395.52 247.2" height="247.2" width="395.52"><g><path d="M0 0" fill="#ffffff" data-fill-palette-color="tertiary"></path></g><g transform="matrix(1,0,0,1,119.57311227532139,37.08)"><svg viewBox="0 0 156.3737754493572 173.04" height="173.04" width="156.3737754493572"><g><svg viewBox="0 0 395.52 437.67428779747695" height="173.04" width="156.3737754493572"><g transform="matrix(1,0,0,1,0,287.7576419051257)"><svg viewBox="0 0 395.52 149.91664589235128" height="149.91664589235128" width="395.52"><g><svg viewBox="0 0 395.52 149.91664589235128" height="149.91664589235128" width="395.52"><g><svg viewBox="0 0 395.52 149.91664589235128" height="149.91664589235128" width="395.52"><g transform="matrix(1,0,0,1,0,0)"><svg width="395.52" viewBox="2.9800000190734863 -37.54999923706055 129.260009765625 49" height="149.91664589235128" data-palette-color="#ffffff"><path d="M37.99-35.01L37.99-3.2Q37.99-2.51 37.74-1.93 37.5-1.34 37.06-0.92 36.62-0.49 36.04-0.24 35.45 0 34.79 0L34.79 0 20.48 0Q18.46 0 16.38-0.44 14.31-0.88 12.37-1.79 10.42-2.71 8.72-4.13 7.01-5.54 5.73-7.48 4.44-9.42 3.71-11.93 2.98-14.43 2.98-17.5L2.98-17.5 2.98-35.01 9.33-35.01 9.33-17.5Q9.33-14.82 10.07-12.96 10.82-11.11 11.96-9.86 13.11-8.62 14.48-7.91 15.84-7.2 17.08-6.86 18.31-6.52 19.25-6.43 20.19-6.35 20.48-6.35L20.48-6.35 31.64-6.35 31.64-35.01 37.99-35.01ZM67.62-26.39L67.62-20.04 53.34-20.04Q52.05-20.04 51.39-19.4 50.73-18.75 50.73-17.5L50.73-17.5 50.73 0 44.38 0 44.38-17.5Q44.38-19.14 44.8-20.43 45.21-21.73 45.91-22.72 46.6-23.71 47.51-24.4 48.41-25.1 49.4-25.54 50.39-25.98 51.4-26.18 52.41-26.39 53.29-26.39L53.29-26.39 67.62-26.39ZM83.39-6.35L83.39 0 80.56 0Q79.19 0 77.64-0.46 76.09-0.93 74.75-1.99 73.41-3.05 72.53-4.75 71.65-6.45 71.65-8.91L71.65-8.91 71.65-37.55 78-37.55 78-8.91Q78-7.74 78.73-7.04 79.46-6.35 80.56-6.35L80.56-6.35 83.39-6.35ZM99.06-6.35L99.06 0 96.23 0Q94.87 0 93.32-0.46 91.76-0.93 90.42-1.99 89.08-3.05 88.2-4.75 87.32-6.45 87.32-8.91L87.32-8.91 87.32-37.55 93.67-37.55 93.67-8.91Q93.67-7.74 94.4-7.04 95.13-6.35 96.23-6.35L96.23-6.35 99.06-6.35ZM132.24-26.39L132.24 2.54Q132.24 4.17 131.83 5.48 131.41 6.79 130.73 7.78 130.04 8.76 129.14 9.46 128.24 10.16 127.25 10.6 126.26 11.04 125.26 11.24 124.26 11.45 123.35 11.45L123.35 11.45 111.9 11.45 111.9 5.1 123.35 5.1Q124.62 5.1 125.26 4.44 125.89 3.78 125.89 2.54L125.89 2.54 125.89-26.39 132.24-26.39ZM123.35-6.35L123.35 0 111.9 0Q110.54 0 108.99-0.46 107.44-0.93 106.09-1.99 104.75-3.05 103.87-4.75 102.99-6.45 102.99-8.91L102.99-8.91 102.99-26.39 109.34-26.39 109.34-8.91Q109.34-7.67 110-7.01 110.66-6.35 111.95-6.35L111.95-6.35 123.35-6.35Z" opacity="1" transform="matrix(1,0,0,1,0,0)" fill="#ffffff" class="undefined-text-0" data-fill-palette-color="primary" id="text-0"></path></svg></g></svg></g></svg></g></svg></g><g transform="matrix(1,0,0,1,89.27290114311987,0)"><svg viewBox="0 0 216.97419771376025 216.97419771376025" height="216.97419771376025" width="216.97419771376025"><g><svg></svg></g><g id="icon-0"><svg viewBox="0 0 216.97419771376025 216.97419771376025" height="216.97419771376025" width="216.97419771376025"><g><path d="M0 108.487c0-59.916 48.571-108.487 108.487-108.487 59.916 0 108.487 48.571 108.487 108.487 0 59.916-48.571 108.487-108.487 108.487-59.916 0-108.487-48.571-108.487-108.487zM108.487 203.455c52.449 0 94.967-42.518 94.968-94.968 0-52.449-42.518-94.967-94.968-94.967-52.449 0-94.967 42.518-94.967 94.967 0 52.449 42.518 94.967 94.967 94.968z" data-fill-palette-color="accent" fill="#81ffd9" stroke="transparent"></path></g><g transform="matrix(1,0,0,1,55.211289549414595,55.211289549414595)"><svg viewBox="0 0 106.55161861493106 106.55161861493106" height="106.55161861493106" width="106.55161861493106"><g><svg xmlns:x="http://ns.adobe.com/Extensibility/1.0/" xmlns:i="http://ns.adobe.com/AdobeIllustrator/10.0/" xmlns:graph="http://ns.adobe.com/Graphs/1.0/" xmlns="http://www.w3.org/2000/svg" xmlns:xlink="http://www.w3.org/1999/xlink" version="1.1" x="0" y="0" viewBox="5 5 54 54" enable-background="new 0 0 64 64" xml:space="preserve" height="106.55161861493106" width="106.55161861493106" class="icon-x-0" data-fill-palette-color="accent" id="x-0"><g fill="#81ffd9" data-fill-palette-color="accent"><path d="M32 5C17.112 5 5 17.112 5 32s12.112 27 27 27 27-12.112 27-27S46.888 5 32 5zM51.77 47.275c-2.293-1.221-5.075-2.225-8.159-2.948 0.822-3.401 1.31-7.233 1.378-11.327h11.986C56.763 38.362 54.854 43.294 51.77 47.275zM7.025 33h4.144c0.428 1.357 1.684 2.351 3.181 2.351 1.537 0 2.822-1.046 3.215-2.459C17.698 32.956 17.842 33 18 33h1.012c0.068 4.034 0.542 7.816 1.343 11.181-3.115 0.679-5.946 1.638-8.326 2.838C9.062 43.083 7.233 38.247 7.025 33zM12.076 16.921c2.31 1.303 5.112 2.353 8.226 3.115-0.77 3.31-1.224 7.016-1.29 10.964H18c-0.158 0-0.302 0.044-0.435 0.109-0.393-1.414-1.678-2.459-3.215-2.459-1.497 0-2.753 0.993-3.181 2.351H7.025C7.234 25.726 9.082 20.868 12.076 16.921zM32 25c0.551 0 1 0.449 1 1s-0.449 1-1 1-1-0.449-1-1S31.449 25 32 25zM33 28.816c1.161-0.415 2-1.514 2-2.816s-0.839-2.401-2-2.816v-1.732c3.021-0.016 5.976-0.278 8.766-0.749 0.72 3.132 1.155 6.626 1.223 10.297H33V28.816zM33 19.452V7.113c3.437 0.743 6.471 5.258 8.271 11.65C38.643 19.196 35.854 19.436 33 19.452zM31 7.113v12.303c-2.863-0.087-5.625-0.39-8.203-0.891C24.605 12.259 27.607 7.846 31 7.113zM31 21.432v1.752c-1.162 0.415-2 1.514-2 2.816s0.838 2.401 2 2.815V31h-9.988c0.069-3.76 0.523-7.335 1.275-10.526C25.028 21.015 27.967 21.343 31 21.432zM15.701 32c0 0.745-0.606 1.351-1.351 1.351S13 32.745 13 32s0.606-1.351 1.351-1.351S15.701 31.255 15.701 32zM21.012 33H31v10.018c-2.985 0.034-5.9 0.304-8.65 0.781C21.56 40.541 21.083 36.866 21.012 33zM31 45.017v11.87c-3.347-0.723-6.313-5.023-8.129-11.152C25.453 45.297 28.191 45.05 31 45.017zM33 56.887v-11.86c0.064 0.002 0.13 0.002 0.193 0.004C33.616 46.177 34.709 47 36 47c1.125 0 2.095-0.629 2.608-1.548 0.846 0.111 1.676 0.241 2.489 0.392C39.279 51.916 36.327 56.168 33 56.887zM36 45c-0.552 0-1-0.448-1-1s0.448-1 1-1 1 0.448 1 1S36.552 45 36 45zM38.947 43.481C38.7 42.074 37.477 41 36 41c-1.313 0-2.42 0.854-2.825 2.03-0.058-0.001-0.116-0.002-0.175-0.003V33h9.988c-0.071 3.91-0.56 7.623-1.365 10.908C40.748 43.742 39.855 43.602 38.947 43.481zM44.988 31c-0.064-3.829-0.493-7.432-1.222-10.666 3.201-0.68 6.104-1.659 8.542-2.887 2.766 3.849 4.467 8.51 4.666 13.552H44.988zM51.047 15.833c-2.235 1.081-4.864 1.953-7.767 2.563-1.282-4.651-3.211-8.394-5.552-10.727C43.007 8.913 47.645 11.83 51.047 15.833zM26.272 7.67c-2.29 2.282-4.186 5.909-5.468 10.419-2.8-0.683-5.322-1.606-7.424-2.749C16.739 11.59 21.211 8.861 26.272 7.67zM13.338 48.611c2.173-1.047 4.719-1.893 7.522-2.498 1.281 4.417 3.156 7.969 5.412 10.217C21.189 55.134 16.702 52.386 13.338 48.611zM37.729 56.33c2.23-2.223 4.088-5.723 5.367-10.071 2.77 0.646 5.274 1.522 7.361 2.585C47.117 52.5 42.707 55.158 37.729 56.33z" fill="#81ffd9" data-fill-palette-color="accent"></path></g></svg></g></svg></g></svg></g></svg></g><g></g></svg></g></svg></g></svg></g></svg><rect width="395.52" height="247.2" fill="none" stroke="none" visibility="hidden"></rect></g></svg></g></svg>